<svg xmlns="http://www.w3.org/2000/svg" width="43.997" height="49.906" viewBox="0 0 43.997 49.906"><defs><style>.a{fill:#830e21;}</style></defs><path class="a" d="M129.157,113.442a8.409,8.409,0,0,0,1.376-4.6v-4.887a7.227,7.227,0,0,0-3.6-6.236L108.92,87.31,87.31,99.786V124.74l21.61,12.477,18.208-10.532a8.434,8.434,0,0,0,4.179-7.266V118.05A5.934,5.934,0,0,0,129.157,113.442Zm-17.836.207h0l14.4-8.316v3.507a3.606,3.606,0,0,1-1.824,3.131l-12.581,7.224ZM92.112,102.558l16.808-9.7,14.388,8.328h0l-16.789,9.693v19.408l-14.407-8.318Zm34.388,16.86a3.611,3.611,0,0,1-1.789,3.111l-13.39,7.756V124.74l13.625-7.835a1,1,0,0,1,.955.108,1.177,1.177,0,0,1,.6,1.038Z" transform="translate(-87.31 -87.31)"/></svg>